<svg width="99" height="80" viewBox="0 0 99 80" fill="none" xmlns="http://www.w3.org/2000/svg">
<path d="M10.3086 64.2566V14.3458C10.3086 13.0173 11.3855 11.9404 12.7139 11.9404H86.6781C88.0065 11.9404 89.0834 13.0173 89.0834 14.3458V64.2566C89.0834 65.585 88.0065 66.6619 86.6781 66.6619H12.7139C11.3855 66.6619 10.3086 65.585 10.3086 64.2566Z" stroke="#C1C1C1" stroke-width="1.60356" stroke-linejoin="round"/>
<circle cx="17.5247" cy="16.5506" r="1.40311" fill="#EB5F30"/>
<circle cx="23.1375" cy="16.5506" r="1.40311" fill="#EBCC30"/>
<circle cx="28.7493" cy="16.5506" r="1.40311" fill="#93D37D"/>
<path d="M10.3086 21.1602H89.0834" stroke="#C1C1C1" stroke-width="1.60356" stroke-linejoin="round"/>
<g filter="url(#filter0_i_135_1255)">
<g filter="url(#filter1_d_135_1255)">
<path d="M38.7263 27.8217C32.6472 36.2186 28.1212 46.2245 28.1212 46.2245L35.6459 53.5714L43.2235 61.3151C43.2235 61.3151 59.5488 52.6988 68.3327 44.3878C71.0053 41.859 71.5021 41.1107 73.639 38.2652C75.7759 35.4198 77.3125 33.1631 79.1493 28.6733C80.9861 24.1834 80.5202 25.2472 81.7954 20.3058C83.0706 15.3644 83.0147 6.42789 83.0147 6.42789C83.0147 6.42789 73.6754 5.96937 68.734 7.24457C63.7926 8.51977 65.0605 8.06077 60.5706 9.89759C56.0808 11.7344 53.7808 13.288 50.9787 15.4079C48.1765 17.5278 47.5345 18.2501 44.8561 20.7142C42.7204 22.6791 40.6459 25.1702 38.7263 27.8217Z" fill="white"/>
<path d="M26.6926 25.8161C24.2397 26.0931 23.0395 26.7267 21.1823 28.4692L18.7333 36.0203L15.4679 46.2245C15.3991 47.1166 15.6155 47.5055 17.3047 47.6531L28.1212 46.2245C28.1212 46.2245 32.6472 36.2186 38.7263 27.8217L26.6926 25.8161Z" fill="white"/>
<path d="M61.3103 50.1022C52.8608 56.2286 43.2235 61.3151 43.2235 61.3151L41.7949 72.1316C41.9425 73.8207 42.3314 74.0371 43.2235 73.9683L53.4277 70.703L60.9788 68.254C62.7213 66.3967 63.3549 65.1966 63.6319 62.7437L61.3103 50.1022Z" fill="white"/>
<path d="M28.1212 46.2245L17.3047 47.6531C15.6155 47.5055 15.3991 47.1166 15.4679 46.2245L18.7333 36.0203L21.1823 28.4692C23.0395 26.7267 24.2397 26.0931 26.6926 25.8161L38.7263 27.8217M28.1212 46.2245L35.6459 53.5714L43.2235 61.3151M28.1212 46.2245C28.1212 46.2245 32.6472 36.2186 38.7263 27.8217M43.2235 61.3151C43.2235 61.3151 59.5488 52.6988 68.3327 44.3878C71.0053 41.859 71.5021 41.1107 73.639 38.2652C75.7759 35.4198 77.3125 33.1631 79.1493 28.6733C80.9861 24.1834 80.5202 25.2472 81.7954 20.3058C83.0706 15.3644 83.0147 6.42789 83.0147 6.42789C83.0147 6.42789 73.6754 5.96937 68.734 7.24457C63.7926 8.51977 65.0605 8.06077 60.5706 9.89759C56.0808 11.7344 53.7808 13.288 50.9787 15.4079C48.1765 17.5278 47.5345 18.2501 44.8561 20.7142C42.7204 22.6791 40.6459 25.1702 38.7263 27.8217M43.2235 61.3151L41.7949 72.1316C41.9425 73.8207 42.3314 74.0371 43.2235 73.9683L53.4277 70.703L60.9788 68.254C62.7213 66.3967 63.3549 65.1966 63.6319 62.7437L61.3103 50.1022C52.8608 56.2286 43.2235 61.3151 43.2235 61.3151ZM38.9377 27.8569L38.7263 27.8217" stroke="#E6E6E6" stroke-width="1.63268" stroke-linejoin="round"/>
</g>
</g>
<rect width="1.60755" height="7.3758" rx="0.803773" transform="matrix(0.70711 -0.707104 0.70711 0.707104 64.418 18.6719)" fill="#D9D9D9"/>
<rect width="1.70211" height="3.97159" rx="0.851054" transform="matrix(0.70711 -0.707104 0.70711 0.707104 67.8652 15.4912)" fill="#D9D9D9"/>
<rect width="1.70211" height="1.70211" rx="0.851054" transform="matrix(0.70711 -0.707104 0.70711 0.707104 71.6772 19.1699)" fill="#D9D9D9"/>
<g filter="url(#filter2_d_135_1255)">
<g filter="url(#filter3_i_135_1255)">
<rect x="25.1958" y="54.3389" width="5.1253" height="5.1253" rx="0.51253" transform="rotate(-45 25.1958 54.3389)" fill="#EBBC30"/>
</g>
<g filter="url(#filter4_i_135_1255)">
<rect x="24.1709" y="57.4141" width="5.1253" height="5.1253" rx="0.51253" transform="rotate(-45 24.1709 57.4141)" fill="#EB8D30"/>
</g>
<g filter="url(#filter5_i_135_1255)">
<rect x="22.1216" y="61.5146" width="5.1253" height="5.1253" rx="0.51253" transform="rotate(-45 22.1216 61.5146)" fill="#EB5F30"/>
</g>
<g filter="url(#filter6_i_135_1255)">
<rect x="24.1709" y="62.0264" width="5.1253" height="5.1253" rx="0.51253" transform="rotate(-45 24.1709 62.0264)" fill="#EB8D30"/>
</g>
<g filter="url(#filter7_i_135_1255)">
<rect x="20.5835" y="64.0771" width="5.1253" height="5.1253" rx="0.51253" transform="rotate(-45 20.5835 64.0771)" fill="#EB5F30"/>
</g>
<g filter="url(#filter8_i_135_1255)">
<rect x="28.7832" y="56.3887" width="5.1253" height="5.1253" rx="0.51253" transform="rotate(-45 28.7832 56.3887)" fill="#EBBC30"/>
</g>
<g filter="url(#filter9_i_135_1255)">
<rect x="27.2451" y="61.002" width="5.1253" height="5.1253" rx="0.51253" transform="rotate(-45 27.2451 61.002)" fill="#EB8D30"/>
</g>
<g filter="url(#filter10_i_135_1255)">
<rect x="30.3213" y="59.4639" width="5.1253" height="5.1253" rx="0.51253" transform="rotate(-45 30.3213 59.4639)" fill="#EBBC30"/>
</g>
</g>
<mask id="path-19-outside-1_135_1255" maskUnits="userSpaceOnUse" x="17.0195" y="23.0625" width="65" height="36" fill="black">
<rect fill="white" x="17.0195" y="23.0625" width="65" height="36"/>
<path d="M21.5486 38.0625V31.7661H18.922V29.3374H21.5486V27.9882C21.5486 27.0647 21.8604 26.3271 22.484 25.7754C23.1197 25.2118 23.9472 24.9299 24.9666 24.9299H27.863V27.2686H25.0566C24.8167 27.2686 24.6188 27.3465 24.4629 27.5025C24.319 27.6464 24.247 27.8383 24.247 28.0781V29.3374H27.863V31.7661H24.247V38.0625H21.5486ZM29.9428 38.0625V28.1681H32.4614V30.057H33.145L32.3714 31.2084C32.3714 30.141 32.6173 29.3374 33.109 28.7977C33.6007 28.258 34.3203 27.9882 35.2678 27.9882C36.3592 27.9882 37.2047 28.318 37.8044 28.9776C38.416 29.6373 38.7218 30.5667 38.7218 31.7661V32.5756H35.8435V31.946C35.8435 31.4063 35.6935 30.9865 35.3937 30.6867C35.1059 30.3868 34.7161 30.2369 34.2244 30.2369C33.7087 30.2369 33.3129 30.3868 33.037 30.6867C32.7732 30.9865 32.6413 31.4063 32.6413 31.946V38.0625H29.9428ZM44.2917 38.2424C43.4162 38.2424 42.6546 38.0805 42.0069 37.7567C41.3593 37.4209 40.8556 36.9591 40.4958 36.3715C40.148 35.7718 39.9741 35.0762 39.9741 34.2846V31.946C39.9741 31.1544 40.148 30.4648 40.4958 29.8771C40.8556 29.2775 41.3593 28.8157 42.0069 28.4919C42.6546 28.1561 43.4162 27.9882 44.2917 27.9882C45.1792 27.9882 45.9407 28.1561 46.5764 28.4919C47.224 28.8157 47.7217 29.2775 48.0695 29.8771C48.4293 30.4648 48.6092 31.1544 48.6092 31.946V34.2846C48.6092 35.0762 48.4293 35.7718 48.0695 36.3715C47.7217 36.9591 47.224 37.4209 46.5764 37.7567C45.9407 38.0805 45.1792 38.2424 44.2917 38.2424ZM44.2917 35.9037C44.8194 35.9037 45.2211 35.7658 45.497 35.49C45.7728 35.2021 45.9107 34.8003 45.9107 34.2846V31.946C45.9107 31.4182 45.7728 31.0165 45.497 30.7406C45.2211 30.4648 44.8194 30.3269 44.2917 30.3269C43.776 30.3269 43.3742 30.4648 43.0863 30.7406C42.8105 31.0165 42.6726 31.4182 42.6726 31.946V34.2846C42.6726 34.8003 42.8105 35.2021 43.0863 35.49C43.3742 35.7658 43.776 35.9037 44.2917 35.9037ZM50.5091 38.0625V28.1681H53.1176V30.057H53.9092L53.1176 30.6867C53.1176 29.8471 53.3575 29.1875 53.8372 28.7078C54.317 28.228 54.9646 27.9882 55.7801 27.9882C56.7396 27.9882 57.5072 28.324 58.0828 28.9956C58.6705 29.6672 58.9643 30.5607 58.9643 31.6761V38.0625H56.2659V31.946C56.2659 31.4302 56.1279 31.0345 55.8521 30.7586C55.5883 30.4708 55.2105 30.3269 54.7187 30.3269C54.239 30.3269 53.8672 30.4708 53.6034 30.7586C53.3395 31.0345 53.2076 31.4302 53.2076 31.946V38.0625H50.5091ZM66.2252 38.0625C65.2178 38.0625 64.4262 37.7747 63.8506 37.199C63.2749 36.6233 62.9871 35.8318 62.9871 34.8243V30.5967H60.3785V28.1681H62.9871V25.3797H65.6855V28.1681H69.3734V30.5967H65.6855V34.8243C65.6855 35.364 65.9554 35.6339 66.4951 35.6339H69.1935V38.0625H66.2252ZM75.5729 38.2424C74.6974 38.2424 73.9358 38.0805 73.2882 37.7567C72.6406 37.4209 72.1369 36.9591 71.7771 36.3715C71.4292 35.7718 71.2553 35.0762 71.2553 34.2846V31.946C71.2553 31.1544 71.4292 30.4648 71.7771 29.8771C72.1369 29.2775 72.6406 28.8157 73.2882 28.4919C73.9358 28.1561 74.6974 27.9882 75.5729 27.9882C76.4604 27.9882 77.222 28.1561 77.8576 28.4919C78.5053 28.8157 79.003 29.2775 79.3508 29.8771C79.7106 30.4648 79.8905 31.1544 79.8905 31.946V34.2846C79.8905 35.0762 79.7106 35.7718 79.3508 36.3715C79.003 36.9591 78.5053 37.4209 77.8576 37.7567C77.222 38.0805 76.4604 38.2424 75.5729 38.2424ZM75.5729 35.9037C76.1006 35.9037 76.5024 35.7658 76.7782 35.49C77.0541 35.2021 77.192 34.8003 77.192 34.2846V31.946C77.192 31.4182 77.0541 31.0165 76.7782 30.7406C76.5024 30.4648 76.1006 30.3269 75.5729 30.3269C75.0572 30.3269 74.6554 30.4648 74.3676 30.7406C74.0917 31.0165 73.9538 31.4182 73.9538 31.946V34.2846C73.9538 34.8003 74.0917 35.2021 74.3676 35.49C74.6554 35.7658 75.0572 35.9037 75.5729 35.9037ZM33.4508 54.2424C32.6353 54.2424 31.9217 54.1165 31.31 53.8646C30.6984 53.6008 30.2186 53.241 29.8708 52.7852C29.535 52.3295 29.3671 51.7958 29.3671 51.1841H32.0656C32.0656 51.472 32.1915 51.7058 32.4434 51.8857C32.7072 52.0536 33.043 52.1376 33.4508 52.1376H34.2424C34.7341 52.1376 35.1059 52.0476 35.3577 51.8677C35.6216 51.6878 35.7535 51.436 35.7535 51.1122C35.7535 50.8123 35.6396 50.5845 35.4117 50.4286C35.1838 50.2606 34.83 50.1467 34.3503 50.0867L33.1989 49.9428C31.9636 49.7869 31.0642 49.4871 30.5005 49.0433C29.9368 48.5996 29.6549 47.922 29.6549 47.0105C29.6549 46.051 29.9848 45.3074 30.6444 44.7797C31.304 44.252 32.2695 43.9882 33.5408 43.9882H34.2244C35.4357 43.9882 36.4011 44.252 37.1207 44.7797C37.8403 45.3074 38.2001 46.015 38.2001 46.9025H35.5017C35.5017 46.6627 35.3817 46.4708 35.1419 46.3269C34.914 46.171 34.6082 46.093 34.2244 46.093H33.5408C33.097 46.093 32.7732 46.171 32.5693 46.3269C32.3654 46.4708 32.2635 46.6927 32.2635 46.9925C32.2635 47.2683 32.3534 47.4782 32.5333 47.6221C32.7252 47.7661 33.025 47.868 33.4328 47.928L34.6741 48.0899C35.9214 48.2458 36.8449 48.5576 37.4446 49.0253C38.0562 49.4931 38.362 50.1887 38.362 51.1122C38.362 52.1196 38.0142 52.8932 37.3186 53.4329C36.623 53.9726 35.5976 54.2424 34.2424 54.2424H33.4508ZM40.082 54.0625V40.9299H42.7805V44.1681L42.6906 46.057H43.4821L42.6906 46.6867C42.6906 45.8471 42.9304 45.1875 43.4102 44.7078C43.8899 44.228 44.5375 43.9882 45.3531 43.9882C46.3125 43.9882 47.0801 44.324 47.6558 44.9956C48.2434 45.6672 48.5373 46.5607 48.5373 47.6761V54.0625H45.8388V47.946C45.8388 47.4302 45.7009 47.0345 45.425 46.7586C45.1612 46.4708 44.7834 46.3269 44.2917 46.3269C43.8119 46.3269 43.4401 46.4708 43.1763 46.7586C42.9124 47.0345 42.7805 47.4302 42.7805 47.946V54.0625H40.082ZM50.5811 54.0625V51.6159H53.9992V46.5967H51.0308V44.1681H56.5177V51.6159H59.3961V54.0625H50.5811ZM55.0785 42.603C54.5868 42.603 54.191 42.477 53.8912 42.2252C53.6034 41.9733 53.4595 41.6315 53.4595 41.1998C53.4595 40.768 53.6034 40.4262 53.8912 40.1743C54.191 39.9225 54.5868 39.7965 55.0785 39.7965C55.5703 39.7965 55.96 39.9225 56.2479 40.1743C56.5477 40.4262 56.6976 40.768 56.6976 41.1998C56.6976 41.6315 56.5477 41.9733 56.2479 42.2252C55.96 42.477 55.5703 42.603 55.0785 42.603ZM60.9362 57.3007V44.1681H63.5447V46.057H64.1744L63.5447 46.6867C63.5447 45.8351 63.7786 45.1755 64.2463 44.7078C64.7141 44.228 65.3557 43.9882 66.1713 43.9882C67.1667 43.9882 67.9642 44.342 68.5639 45.0496C69.1636 45.7452 69.4634 46.6807 69.4634 47.856V50.3746C69.4634 51.1541 69.3255 51.8378 69.0496 52.4254C68.7858 53.0011 68.408 53.4508 67.9163 53.7747C67.4245 54.0865 66.8429 54.2424 66.1713 54.2424C65.3557 54.2424 64.7141 54.0085 64.2463 53.5408C63.7786 53.0611 63.5447 52.3954 63.5447 51.5439L64.1744 52.1736H63.5447L63.6347 54.6022V57.3007H60.9362ZM65.1998 51.9037C65.7035 51.9037 66.0873 51.7658 66.3511 51.49C66.627 51.2021 66.7649 50.8003 66.7649 50.2846V47.946C66.7649 47.4182 66.627 47.0165 66.3511 46.7406C66.0873 46.4648 65.7035 46.3269 65.1998 46.3269C64.7081 46.3269 64.3243 46.4708 64.0484 46.7586C63.7726 47.0345 63.6347 47.4302 63.6347 47.946V50.2846C63.6347 50.8003 63.7726 51.2021 64.0484 51.49C64.3243 51.7658 64.7081 51.9037 65.1998 51.9037Z"/>
</mask>
<path d="M21.5486 38.0625V31.7661H18.922V29.3374H21.5486V27.9882C21.5486 27.0647 21.8604 26.3271 22.484 25.7754C23.1197 25.2118 23.9472 24.9299 24.9666 24.9299H27.863V27.2686H25.0566C24.8167 27.2686 24.6188 27.3465 24.4629 27.5025C24.319 27.6464 24.247 27.8383 24.247 28.0781V29.3374H27.863V31.7661H24.247V38.0625H21.5486ZM29.9428 38.0625V28.1681H32.4614V30.057H33.145L32.3714 31.2084C32.3714 30.141 32.6173 29.3374 33.109 28.7977C33.6007 28.258 34.3203 27.9882 35.2678 27.9882C36.3592 27.9882 37.2047 28.318 37.8044 28.9776C38.416 29.6373 38.7218 30.5667 38.7218 31.7661V32.5756H35.8435V31.946C35.8435 31.4063 35.6935 30.9865 35.3937 30.6867C35.1059 30.3868 34.7161 30.2369 34.2244 30.2369C33.7087 30.2369 33.3129 30.3868 33.037 30.6867C32.7732 30.9865 32.6413 31.4063 32.6413 31.946V38.0625H29.9428ZM44.2917 38.2424C43.4162 38.2424 42.6546 38.0805 42.0069 37.7567C41.3593 37.4209 40.8556 36.9591 40.4958 36.3715C40.148 35.7718 39.9741 35.0762 39.9741 34.2846V31.946C39.9741 31.1544 40.148 30.4648 40.4958 29.8771C40.8556 29.2775 41.3593 28.8157 42.0069 28.4919C42.6546 28.1561 43.4162 27.9882 44.2917 27.9882C45.1792 27.9882 45.9407 28.1561 46.5764 28.4919C47.224 28.8157 47.7217 29.2775 48.0695 29.8771C48.4293 30.4648 48.6092 31.1544 48.6092 31.946V34.2846C48.6092 35.0762 48.4293 35.7718 48.0695 36.3715C47.7217 36.9591 47.224 37.4209 46.5764 37.7567C45.9407 38.0805 45.1792 38.2424 44.2917 38.2424ZM44.2917 35.9037C44.8194 35.9037 45.2211 35.7658 45.497 35.49C45.7728 35.2021 45.9107 34.8003 45.9107 34.2846V31.946C45.9107 31.4182 45.7728 31.0165 45.497 30.7406C45.2211 30.4648 44.8194 30.3269 44.2917 30.3269C43.776 30.3269 43.3742 30.4648 43.0863 30.7406C42.8105 31.0165 42.6726 31.4182 42.6726 31.946V34.2846C42.6726 34.8003 42.8105 35.2021 43.0863 35.49C43.3742 35.7658 43.776 35.9037 44.2917 35.9037ZM50.5091 38.0625V28.1681H53.1176V30.057H53.9092L53.1176 30.6867C53.1176 29.8471 53.3575 29.1875 53.8372 28.7078C54.317 28.228 54.9646 27.9882 55.7801 27.9882C56.7396 27.9882 57.5072 28.324 58.0828 28.9956C58.6705 29.6672 58.9643 30.5607 58.9643 31.6761V38.0625H56.2659V31.946C56.2659 31.4302 56.1279 31.0345 55.8521 30.7586C55.5883 30.4708 55.2105 30.3269 54.7187 30.3269C54.239 30.3269 53.8672 30.4708 53.6034 30.7586C53.3395 31.0345 53.2076 31.4302 53.2076 31.946V38.0625H50.5091ZM66.2252 38.0625C65.2178 38.0625 64.4262 37.7747 63.8506 37.199C63.2749 36.6233 62.9871 35.8318 62.9871 34.8243V30.5967H60.3785V28.1681H62.9871V25.3797H65.6855V28.1681H69.3734V30.5967H65.6855V34.8243C65.6855 35.364 65.9554 35.6339 66.4951 35.6339H69.1935V38.0625H66.2252ZM75.5729 38.2424C74.6974 38.2424 73.9358 38.0805 73.2882 37.7567C72.6406 37.4209 72.1369 36.9591 71.7771 36.3715C71.4292 35.7718 71.2553 35.0762 71.2553 34.2846V31.946C71.2553 31.1544 71.4292 30.4648 71.7771 29.8771C72.1369 29.2775 72.6406 28.8157 73.2882 28.4919C73.9358 28.1561 74.6974 27.9882 75.5729 27.9882C76.4604 27.9882 77.222 28.1561 77.8576 28.4919C78.5053 28.8157 79.003 29.2775 79.3508 29.8771C79.7106 30.4648 79.8905 31.1544 79.8905 31.946V34.2846C79.8905 35.0762 79.7106 35.7718 79.3508 36.3715C79.003 36.9591 78.5053 37.4209 77.8576 37.7567C77.222 38.0805 76.4604 38.2424 75.5729 38.2424ZM75.5729 35.9037C76.1006 35.9037 76.5024 35.7658 76.7782 35.49C77.0541 35.2021 77.192 34.8003 77.192 34.2846V31.946C77.192 31.4182 77.0541 31.0165 76.7782 30.7406C76.5024 30.4648 76.1006 30.3269 75.5729 30.3269C75.0572 30.3269 74.6554 30.4648 74.3676 30.7406C74.0917 31.0165 73.9538 31.4182 73.9538 31.946V34.2846C73.9538 34.8003 74.0917 35.2021 74.3676 35.49C74.6554 35.7658 75.0572 35.9037 75.5729 35.9037ZM33.4508 54.2424C32.6353 54.2424 31.9217 54.1165 31.31 53.8646C30.6984 53.6008 30.2186 53.241 29.8708 52.7852C29.535 52.3295 29.3671 51.7958 29.3671 51.1841H32.0656C32.0656 51.472 32.1915 51.7058 32.4434 51.8857C32.7072 52.0536 33.043 52.1376 33.4508 52.1376H34.2424C34.7341 52.1376 35.1059 52.0476 35.3577 51.8677C35.6216 51.6878 35.7535 51.436 35.7535 51.1122C35.7535 50.8123 35.6396 50.5845 35.4117 50.4286C35.1838 50.2606 34.83 50.1467 34.3503 50.0867L33.1989 49.9428C31.9636 49.7869 31.0642 49.4871 30.5005 49.0433C29.9368 48.5996 29.6549 47.922 29.6549 47.0105C29.6549 46.051 29.9848 45.3074 30.6444 44.7797C31.304 44.252 32.2695 43.9882 33.5408 43.9882H34.2244C35.4357 43.9882 36.4011 44.252 37.1207 44.7797C37.8403 45.3074 38.2001 46.015 38.2001 46.9025H35.5017C35.5017 46.6627 35.3817 46.4708 35.1419 46.3269C34.914 46.171 34.6082 46.093 34.2244 46.093H33.5408C33.097 46.093 32.7732 46.171 32.5693 46.3269C32.3654 46.4708 32.2635 46.6927 32.2635 46.9925C32.2635 47.2683 32.3534 47.4782 32.5333 47.6221C32.7252 47.7661 33.025 47.868 33.4328 47.928L34.6741 48.0899C35.9214 48.2458 36.8449 48.5576 37.4446 49.0253C38.0562 49.4931 38.362 50.1887 38.362 51.1122C38.362 52.1196 38.0142 52.8932 37.3186 53.4329C36.623 53.9726 35.5976 54.2424 34.2424 54.2424H33.4508ZM40.082 54.0625V40.9299H42.7805V44.1681L42.6906 46.057H43.4821L42.6906 46.6867C42.6906 45.8471 42.9304 45.1875 43.4102 44.7078C43.8899 44.228 44.5375 43.9882 45.3531 43.9882C46.3125 43.9882 47.0801 44.324 47.6558 44.9956C48.2434 45.6672 48.5373 46.5607 48.5373 47.6761V54.0625H45.8388V47.946C45.8388 47.4302 45.7009 47.0345 45.425 46.7586C45.1612 46.4708 44.7834 46.3269 44.2917 46.3269C43.8119 46.3269 43.4401 46.4708 43.1763 46.7586C42.9124 47.0345 42.7805 47.4302 42.7805 47.946V54.0625H40.082ZM50.5811 54.0625V51.6159H53.9992V46.5967H51.0308V44.1681H56.5177V51.6159H59.3961V54.0625H50.5811ZM55.0785 42.603C54.5868 42.603 54.191 42.477 53.8912 42.2252C53.6034 41.9733 53.4595 41.6315 53.4595 41.1998C53.4595 40.768 53.6034 40.4262 53.8912 40.1743C54.191 39.9225 54.5868 39.7965 55.0785 39.7965C55.5703 39.7965 55.96 39.9225 56.2479 40.1743C56.5477 40.4262 56.6976 40.768 56.6976 41.1998C56.6976 41.6315 56.5477 41.9733 56.2479 42.2252C55.96 42.477 55.5703 42.603 55.0785 42.603ZM60.9362 57.3007V44.1681H63.5447V46.057H64.1744L63.5447 46.6867C63.5447 45.8351 63.7786 45.1755 64.2463 44.7078C64.7141 44.228 65.3557 43.9882 66.1713 43.9882C67.1667 43.9882 67.9642 44.342 68.5639 45.0496C69.1636 45.7452 69.4634 46.6807 69.4634 47.856V50.3746C69.4634 51.1541 69.3255 51.8378 69.0496 52.4254C68.7858 53.0011 68.408 53.4508 67.9163 53.7747C67.4245 54.0865 66.8429 54.2424 66.1713 54.2424C65.3557 54.2424 64.7141 54.0085 64.2463 53.5408C63.7786 53.0611 63.5447 52.3954 63.5447 51.5439L64.1744 52.1736H63.5447L63.6347 54.6022V57.3007H60.9362ZM65.1998 51.9037C65.7035 51.9037 66.0873 51.7658 66.3511 51.49C66.627 51.2021 66.7649 50.8003 66.7649 50.2846V47.946C66.7649 47.4182 66.627 47.0165 66.3511 46.7406C66.0873 46.4648 65.7035 46.3269 65.1998 46.3269C64.7081 46.3269 64.3243 46.4708 64.0484 46.7586C63.7726 47.0345 63.6347 47.4302 63.6347 47.946V50.2846C63.6347 50.8003 63.7726 51.2021 64.0484 51.49C64.3243 51.7658 64.7081 51.9037 65.1998 51.9037Z" fill="black"/>
<path d="M21.5486 38.0625H20.3492V39.2618H21.5486V38.0625ZM21.5486 31.7661H22.7479V30.5667H21.5486V31.7661ZM18.922 31.7661H17.7227V32.9654H18.922V31.7661ZM18.922 29.3374V28.1381H17.7227V29.3374H18.922ZM21.5486 29.3374V30.5367H22.7479V29.3374H21.5486ZM22.484 25.7754L23.2787 26.6737L23.2798 26.6727L22.484 25.7754ZM27.863 24.9299H29.0623V23.7306H27.863V24.9299ZM27.863 27.2686V28.4679H29.0623V27.2686H27.863ZM24.4629 27.5025L25.311 28.3505L25.311 28.3505L24.4629 27.5025ZM24.247 29.3374H23.0477V30.5367H24.247V29.3374ZM27.863 29.3374H29.0623V28.1381H27.863V29.3374ZM27.863 31.7661V32.9654H29.0623V31.7661H27.863ZM24.247 31.7661V30.5667H23.0477V31.7661H24.247ZM24.247 38.0625V39.2618H25.4464V38.0625H24.247ZM22.7479 38.0625V31.7661H20.3492V38.0625H22.7479ZM21.5486 30.5667H18.922V32.9654H21.5486V30.5667ZM20.1214 31.7661V29.3374H17.7227V31.7661H20.1214ZM18.922 30.5367H21.5486V28.1381H18.922V30.5367ZM22.7479 29.3374V27.9882H20.3492V29.3374H22.7479ZM22.7479 27.9882C22.7479 27.3664 22.9422 26.9714 23.2787 26.6737L21.6894 24.8771C20.7786 25.6828 20.3492 26.763 20.3492 27.9882H22.7479ZM23.2798 26.6727C23.6539 26.341 24.1788 26.1292 24.9666 26.1292V23.7306C23.7156 23.7306 22.5854 24.0825 21.6883 24.8781L23.2798 26.6727ZM24.9666 26.1292H27.863V23.7306H24.9666V26.1292ZM26.6637 24.9299V27.2686H29.0623V24.9299H26.6637ZM27.863 26.0693H25.0566V28.4679H27.863V26.0693ZM25.0566 26.0693C24.5294 26.0693 24.0166 26.2527 23.6149 26.6544L25.311 28.3505C25.2769 28.3845 25.2276 28.4194 25.1678 28.4429C25.11 28.4657 25.068 28.4679 25.0566 28.4679V26.0693ZM23.6149 26.6544C23.2062 27.0631 23.0477 27.5813 23.0477 28.0781H25.4464C25.4464 28.078 25.4463 28.1159 25.424 28.1754C25.4003 28.2386 25.3609 28.3005 25.311 28.3505L23.6149 26.6544ZM23.0477 28.0781V29.3374H25.4464V28.0781H23.0477ZM24.247 30.5367H27.863V28.1381H24.247V30.5367ZM26.6637 29.3374V31.7661H29.0623V29.3374H26.6637ZM27.863 30.5667H24.247V32.9654H27.863V30.5667ZM23.0477 31.7661V38.0625H25.4464V31.7661H23.0477ZM24.247 36.8632H21.5486V39.2618H24.247V36.8632ZM29.9428 38.0625H28.7435V39.2618H29.9428V38.0625ZM29.9428 28.1681V26.9688H28.7435V28.1681H29.9428ZM32.4614 28.1681H33.6607V26.9688H32.4614V28.1681ZM32.4614 30.057H31.262V31.2563H32.4614V30.057ZM33.145 30.057L34.1405 30.7259L35.3957 28.8577H33.145V30.057ZM32.3714 31.2084H31.1721V35.1439L33.3669 31.8772L32.3714 31.2084ZM33.109 28.7977L32.2225 27.99L32.2225 27.99L33.109 28.7977ZM37.8044 28.9776L36.9169 29.7844L36.9249 29.7931L37.8044 28.9776ZM38.7218 32.5756V33.7749H39.9212V32.5756H38.7218ZM35.8435 32.5756H34.6441V33.7749H35.8435V32.5756ZM35.3937 30.6867L34.5285 31.5172L34.537 31.5261L34.5457 31.5347L35.3937 30.6867ZM33.037 30.6867L32.1544 29.8747L32.1455 29.8844L32.1367 29.8944L33.037 30.6867ZM32.6413 38.0625V39.2618H33.8406V38.0625H32.6413ZM31.1421 38.0625V28.1681H28.7435V38.0625H31.1421ZM29.9428 29.3674H32.4614V26.9688H29.9428V29.3674ZM31.262 28.1681V30.057H33.6607V28.1681H31.262ZM32.4614 31.2563H33.145V28.8577H32.4614V31.2563ZM32.1495 29.3882L31.3759 30.5395L33.3669 31.8772L34.1405 30.7259L32.1495 29.3882ZM33.5707 31.2084C33.5707 30.3039 33.7809 29.841 33.9955 29.6055L32.2225 27.99C31.4536 28.8338 31.1721 29.9781 31.1721 31.2084H33.5707ZM33.9955 29.6055C34.1971 29.3843 34.5514 29.1875 35.2678 29.1875V26.7889C34.0892 26.7889 33.0044 27.1318 32.2225 27.99L33.9955 29.6055ZM35.2678 29.1875C36.1031 29.1875 36.5943 29.4295 36.9169 29.7844L38.6918 28.1709C37.815 27.2065 36.6152 26.7889 35.2678 26.7889V29.1875ZM36.9249 29.7931C37.2703 30.1655 37.5225 30.7662 37.5225 31.7661H39.9212C39.9212 30.3672 39.5617 29.109 38.6838 28.1622L36.9249 29.7931ZM37.5225 31.7661V32.5756H39.9212V31.7661H37.5225ZM38.7218 31.3763H35.8435V33.7749H38.7218V31.3763ZM37.0428 32.5756V31.946H34.6441V32.5756H37.0428ZM37.0428 31.946C37.0428 31.1793 36.8236 30.4205 36.2418 29.8386L34.5457 31.5347C34.5635 31.5525 34.6441 31.6332 34.6441 31.946H37.0428ZM36.2589 29.8561C35.7037 29.2778 34.978 29.0376 34.2244 29.0376V31.4362C34.4542 31.4362 34.5081 31.4959 34.5285 31.5172L36.2589 29.8561ZM34.2244 29.0376C33.4683 29.0376 32.7146 29.2658 32.1544 29.8747L33.9197 31.4987C33.9262 31.4916 33.9353 31.4824 33.9656 31.4709C34.0017 31.4572 34.0809 31.4362 34.2244 31.4362V29.0376ZM32.1367 29.8944C31.6213 30.48 31.4419 31.218 31.4419 31.946H33.8406C33.8406 31.5945 33.925 31.493 33.9374 31.479L32.1367 29.8944ZM31.4419 31.946V38.0625H33.8406V31.946H31.4419ZM32.6413 36.8632H29.9428V39.2618H32.6413V36.8632ZM42.0069 37.7567L41.4549 38.8214L41.4627 38.8254L41.4706 38.8294L42.0069 37.7567ZM40.4958 36.3715L39.4584 36.9732L39.4655 36.9855L39.473 36.9977L40.4958 36.3715ZM40.4958 29.8771L39.4674 29.2601L39.4637 29.2663L40.4958 29.8771ZM42.0069 28.4919L42.5433 29.5646L42.5512 29.5607L42.559 29.5566L42.0069 28.4919ZM46.5764 28.4919L46.0161 29.5523L46.028 29.5586L46.04 29.5646L46.5764 28.4919ZM48.0695 29.8771L47.0321 30.4788L47.0392 30.4912L47.0467 30.5033L48.0695 29.8771ZM48.0695 36.3715L47.0411 35.7544L47.0374 35.7606L48.0695 36.3715ZM46.5764 37.7567L47.1208 38.8253L47.1284 38.8214L46.5764 37.7567ZM45.497 35.49L46.345 36.338L46.354 36.329L46.3629 36.3198L45.497 35.49ZM43.0863 30.7406L42.2565 29.8747L42.2473 29.8836L42.2383 29.8926L43.0863 30.7406ZM43.0863 35.49L42.2204 36.3198L42.2381 36.3382L42.2565 36.3558L43.0863 35.49ZM44.2917 37.0431C43.5639 37.0431 42.9931 36.9089 42.5433 36.684L41.4706 38.8294C42.316 39.2521 43.2684 39.4417 44.2917 39.4417V37.0431ZM42.559 36.692C42.0934 36.4506 41.7576 36.1355 41.5186 35.7452L39.473 36.9977C39.9536 37.7827 40.6252 38.3912 41.4549 38.8214L42.559 36.692ZM41.5333 35.7697C41.3058 35.3776 41.1734 34.8953 41.1734 34.2846H38.7748C38.7748 35.257 38.9902 36.166 39.4584 36.9732L41.5333 35.7697ZM41.1734 34.2846V31.946H38.7748V34.2846H41.1734ZM41.1734 31.946C41.1734 31.3346 41.306 30.863 41.5279 30.488L39.4637 29.2663C38.99 30.0666 38.7748 30.9742 38.7748 31.946H41.1734ZM41.5242 30.4942C41.7624 30.0973 42.0921 29.7902 42.5433 29.5646L41.4706 27.4192C40.6266 27.8412 39.9488 28.4577 39.4674 29.2601L41.5242 30.4942ZM42.559 29.5566C43.0051 29.3253 43.5701 29.1875 44.2917 29.1875V26.7889C43.2622 26.7889 42.304 26.9869 41.4549 27.4272L42.559 29.5566ZM44.2917 29.1875C45.029 29.1875 45.5891 29.3267 46.0161 29.5523L47.1366 27.4315C46.2924 26.9855 45.3293 26.7889 44.2917 26.7889V29.1875ZM46.04 29.5646C46.4881 29.7886 46.8071 30.091 47.0321 30.4788L49.107 29.2754C48.6363 28.4639 47.96 27.8428 47.1127 27.4192L46.04 29.5646ZM47.0467 30.5033C47.2747 30.8758 47.4099 31.3419 47.4099 31.946H49.8085C49.8085 30.9669 49.5839 30.0537 49.0924 29.2509L47.0467 30.5033ZM47.4099 31.946V34.2846H49.8085V31.946H47.4099ZM47.4099 34.2846C47.4099 34.8881 47.2749 35.3648 47.0411 35.7544L49.0979 36.9885C49.5837 36.1788 49.8085 35.2642 49.8085 34.2846H47.4099ZM47.0374 35.7606C46.8119 36.1417 46.4868 36.4522 46.0243 36.692L47.1284 38.8214C47.9612 38.3896 48.6316 37.7765 49.1016 36.9823L47.0374 35.7606ZM46.032 36.688C45.6011 36.9075 45.0352 37.0431 44.2917 37.0431V39.4417C45.3231 39.4417 46.2803 39.2535 47.1208 38.8253L46.032 36.688ZM44.2917 37.103C45.0221 37.103 45.7741 36.9089 46.345 36.338L44.6489 34.6419C44.6483 34.6426 44.6466 34.6443 44.6415 34.6474C44.636 34.6507 44.6232 34.6578 44.5994 34.6659C44.5499 34.6829 44.4538 34.7044 44.2917 34.7044V37.103ZM46.3629 36.3198C46.91 35.7488 47.1101 35.0154 47.1101 34.2846H44.7114C44.7114 34.5853 44.6356 34.6554 44.6311 34.6601L46.3629 36.3198ZM47.1101 34.2846V31.946H44.7114V34.2846H47.1101ZM47.1101 31.946C47.1101 31.2155 46.916 30.4635 46.345 29.8926L44.6489 31.5887C44.6496 31.5893 44.6513 31.591 44.6544 31.5961C44.6577 31.6016 44.6648 31.6144 44.673 31.6382C44.6899 31.6877 44.7114 31.7838 44.7114 31.946H47.1101ZM46.345 29.8926C45.7741 29.3216 45.0221 29.1275 44.2917 29.1275V31.5262C44.4538 31.5262 44.5499 31.5477 44.5994 31.5647C44.6232 31.5728 44.636 31.5799 44.6415 31.5832C44.6466 31.5863 44.6483 31.588 44.6489 31.5887L46.345 29.8926ZM44.2917 29.1275C43.5609 29.1275 42.8275 29.3276 42.2565 29.8747L43.9162 31.6065C43.9209 31.602 43.991 31.5262 44.2917 31.5262V29.1275ZM42.2383 29.8926C41.6674 30.4635 41.4733 31.2155 41.4733 31.946H43.8719C43.8719 31.7838 43.8934 31.6877 43.9104 31.6382C43.9185 31.6144 43.9256 31.6016 43.9289 31.5961C43.932 31.591 43.9337 31.5893 43.9344 31.5887L42.2383 29.8926ZM41.4733 31.946V34.2846H43.8719V31.946H41.4733ZM41.4733 34.2846C41.4733 35.0154 41.6733 35.7488 42.2204 36.3198L43.9522 34.6601C43.9477 34.6554 43.8719 34.5853 43.8719 34.2846H41.4733ZM42.2565 36.3558C42.8275 36.903 43.5609 37.103 44.2917 37.103V34.7044C43.991 34.7044 43.9209 34.6286 43.9162 34.6241L42.2565 36.3558ZM50.5091 38.0625H49.3098V39.2618H50.5091V38.0625ZM50.5091 28.1681V26.9688H49.3098V28.1681H50.5091ZM53.1176 28.1681H54.317V26.9688H53.1176V28.1681ZM53.1176 30.057H51.9183V31.2563H53.1176V30.057ZM53.9092 30.057L54.6558 30.9956L57.3435 28.8577H53.9092V30.057ZM53.1176 30.6867H51.9183V33.1731L53.8643 31.6253L53.1176 30.6867ZM53.8372 28.7078L52.9892 27.8597L52.9892 27.8597L53.8372 28.7078ZM58.0828 28.9956L57.1722 29.7762L57.1803 29.7854L58.0828 28.9956ZM58.9643 38.0625V39.2618H60.1637V38.0625H58.9643ZM56.2659 38.0625H55.0666V39.2618H56.2659V38.0625ZM55.8521 30.7586L54.968 31.569L54.9856 31.5882L55.0041 31.6067L55.8521 30.7586ZM53.6034 30.7586L54.4701 31.5876L54.4789 31.5784L54.4875 31.569L53.6034 30.7586ZM53.2076 38.0625V39.2618H54.4069V38.0625H53.2076ZM51.7084 38.0625V28.1681H49.3098V38.0625H51.7084ZM50.5091 29.3674H53.1176V26.9688H50.5091V29.3674ZM51.9183 28.1681V30.057H54.317V28.1681H51.9183ZM53.1176 31.2563H53.9092V28.8577H53.1176V31.2563ZM53.1626 29.1184L52.371 29.7481L53.8643 31.6253L54.6558 30.9956L53.1626 29.1184ZM54.317 30.6867C54.317 30.0852 54.4814 29.7597 54.6853 29.5558L52.9892 27.8597C52.2337 28.6153 51.9183 29.6091 51.9183 30.6867H54.317ZM54.6853 29.5558C54.8957 29.3454 55.2139 29.1875 55.7801 29.1875V26.7889C54.7153 26.7889 53.7382 27.1107 52.9892 27.8597L54.6853 29.5558ZM55.7801 29.1875C56.423 29.1875 56.8454 29.3948 57.1723 29.7761L58.9934 28.2151C58.169 27.2532 57.0562 26.7889 55.7801 26.7889V29.1875ZM57.1803 29.7854C57.5323 30.1878 57.765 30.7761 57.765 31.6761H60.1637C60.1637 30.3454 59.8087 29.1467 58.9854 28.2059L57.1803 29.7854ZM57.765 31.6761V38.0625H60.1637V31.6761H57.765ZM58.9643 36.8632H56.2659V39.2618H58.9643V36.8632ZM57.4652 38.0625V31.946H55.0666V38.0625H57.4652ZM57.4652 31.946C57.4652 31.2183 57.2662 30.4767 56.7002 29.9106L55.0041 31.6067C55.0049 31.6075 55.0159 31.6168 55.0299 31.657C55.0458 31.7026 55.0666 31.7926 55.0666 31.946H57.4652ZM56.7362 29.9482C56.1891 29.3513 55.4535 29.1275 54.7187 29.1275V31.5262C54.8493 31.5262 54.9173 31.5454 54.9439 31.5556C54.9647 31.5635 54.9668 31.5677 54.968 31.569L56.7362 29.9482ZM54.7187 29.1275C53.9856 29.1275 53.2608 29.3575 52.7193 29.9482L54.4875 31.569C54.492 31.5641 54.4955 31.5601 54.5131 31.5533C54.5359 31.5444 54.5976 31.5262 54.7187 31.5262V29.1275ZM52.7367 29.9296C52.1934 30.4976 52.0083 31.2321 52.0083 31.946H54.4069C54.4069 31.7878 54.4274 31.6922 54.4443 31.6416C54.4525 31.6171 54.4597 31.6033 54.4635 31.5969C54.4671 31.5908 54.4692 31.5885 54.4701 31.5876L52.7367 29.9296ZM52.0083 31.946V38.0625H54.4069V31.946H52.0083ZM53.2076 36.8632H50.5091V39.2618H53.2076V36.8632ZM62.9871 30.5967H64.1864V29.3974H62.9871V30.5967ZM60.3785 30.5967H59.1792V31.796H60.3785V30.5967ZM60.3785 28.1681V26.9688H59.1792V28.1681H60.3785ZM62.9871 28.1681V29.3674H64.1864V28.1681H62.9871ZM62.9871 25.3797V24.1803H61.7877V25.3797H62.9871ZM65.6855 25.3797H66.8848V24.1803H65.6855V25.3797ZM65.6855 28.1681H64.4862V29.3674H65.6855V28.1681ZM69.3734 28.1681H70.5728V26.9688H69.3734V28.1681ZM69.3734 30.5967V31.796H70.5728V30.5967H69.3734ZM65.6855 30.5967V29.3974H64.4862V30.5967H65.6855ZM69.1935 35.6339H70.3929V34.4345H69.1935V35.6339ZM69.1935 38.0625V39.2618H70.3929V38.0625H69.1935ZM66.2252 36.8632C65.4558 36.8632 64.9985 36.6508 64.6986 36.3509L63.0025 38.047C63.854 38.8985 64.9798 39.2618 66.2252 39.2618V36.8632ZM64.6986 36.3509C64.3987 36.0511 64.1864 35.5937 64.1864 34.8243H61.7877C61.7877 36.0698 62.151 37.1955 63.0025 38.047L64.6986 36.3509ZM64.1864 34.8243V30.5967H61.7877V34.8243H64.1864ZM62.9871 29.3974H60.3785V31.796H62.9871V29.3974ZM61.5778 30.5967V28.1681H59.1792V30.5967H61.5778ZM60.3785 29.3674H62.9871V26.9688H60.3785V29.3674ZM64.1864 28.1681V25.3797H61.7877V28.1681H64.1864ZM62.9871 26.579H65.6855V24.1803H62.9871V26.579ZM64.4862 25.3797V28.1681H66.8848V25.3797H64.4862ZM65.6855 29.3674H69.3734V26.9688H65.6855V29.3674ZM68.1741 28.1681V30.5967H70.5728V28.1681H68.1741ZM69.3734 29.3974H65.6855V31.796H69.3734V29.3974ZM64.4862 30.5967V34.8243H66.8848V30.5967H64.4862ZM64.4862 34.8243C64.4862 35.279 64.6007 35.8404 65.0399 36.2795C65.479 36.7187 66.0404 36.8332 66.4951 36.8332V34.4345C66.4101 34.4345 66.5666 34.4141 66.736 34.5834C66.9053 34.7528 66.8848 34.9093 66.8848 34.8243H64.4862ZM66.4951 36.8332H69.1935V34.4345H66.4951V36.8332ZM67.9942 35.6339V38.0625H70.3929V35.6339H67.9942ZM69.1935 36.8632H66.2252V39.2618H69.1935V36.8632ZM73.2882 37.7567L72.7361 38.8214L72.744 38.8254L72.7518 38.8294L73.2882 37.7567ZM71.7771 36.3715L70.7396 36.9732L70.7468 36.9855L70.7542 36.9977L71.7771 36.3715ZM71.7771 29.8771L70.7486 29.2601L70.7449 29.2663L71.7771 29.8771ZM73.2882 28.4919L73.8246 29.5646L73.8324 29.5607L73.8403 29.5566L73.2882 28.4919ZM77.8576 28.4919L77.2974 29.5523L77.3093 29.5586L77.3213 29.5646L77.8576 28.4919ZM79.3508 29.8771L78.3133 30.4788L78.3205 30.4912L78.3279 30.5033L79.3508 29.8771ZM79.3508 36.3715L78.3224 35.7544L78.3187 35.7606L79.3508 36.3715ZM77.8576 37.7567L78.402 38.8253L78.4097 38.8214L77.8576 37.7567ZM76.7782 35.49L77.6263 36.338L77.6353 36.329L77.6441 36.3198L76.7782 35.49ZM74.3676 30.7406L73.5378 29.8747L73.5286 29.8836L73.5195 29.8926L74.3676 30.7406ZM74.3676 35.49L73.5017 36.3198L73.5194 36.3382L73.5378 36.3558L74.3676 35.49ZM75.5729 37.0431C74.8451 37.0431 74.2744 36.9089 73.8246 36.684L72.7518 38.8294C73.5973 39.2521 74.5497 39.4417 75.5729 39.4417V37.0431ZM73.8403 36.692C73.3747 36.4506 73.0388 36.1355 72.7999 35.7452L70.7542 36.9977C71.2349 37.7827 71.9064 38.3912 72.7361 38.8214L73.8403 36.692ZM72.8145 35.7697C72.587 35.3776 72.4547 34.8953 72.4547 34.2846H70.056C70.056 35.257 70.2715 36.166 70.7396 36.9732L72.8145 35.7697ZM72.4547 34.2846V31.946H70.056V34.2846H72.4547ZM72.4547 31.946C72.4547 31.3346 72.5872 30.863 72.8092 30.488L70.7449 29.2663C70.2713 30.0666 70.056 30.9742 70.056 31.946H72.4547ZM72.8055 30.4942C73.0436 30.0973 73.3733 29.7902 73.8246 29.5646L72.7518 27.4192C71.9078 27.8412 71.2301 28.4577 70.7486 29.2601L72.8055 30.4942ZM73.8403 29.5566C74.2864 29.3253 74.8514 29.1875 75.5729 29.1875V26.7889C74.5434 26.7889 73.5853 26.9869 72.7361 27.4272L73.8403 29.5566ZM75.5729 29.1875C76.3103 29.1875 76.8703 29.3267 77.2974 29.5523L78.4179 27.4315C77.5737 26.9855 76.6106 26.7889 75.5729 26.7889V29.1875ZM77.3213 29.5646C77.7693 29.7886 78.0884 30.091 78.3133 30.4788L80.3882 29.2754C79.9176 28.4639 79.2412 27.8428 78.394 27.4192L77.3213 29.5646ZM78.3279 30.5033C78.556 30.8758 78.6912 31.3419 78.6912 31.946H81.0898C81.0898 30.9669 80.8652 30.0537 80.3736 29.2509L78.3279 30.5033ZM78.6912 31.946V34.2846H81.0898V31.946H78.6912ZM78.6912 34.2846C78.6912 34.8881 78.5562 35.3648 78.3224 35.7544L80.3792 36.9885C80.865 36.1788 81.0898 35.2642 81.0898 34.2846H78.6912ZM78.3187 35.7606C78.0931 36.1417 77.768 36.4522 77.3056 36.692L78.4097 38.8214C79.2425 38.3896 79.9128 37.7765 80.3829 36.9823L78.3187 35.7606ZM77.3132 36.688C76.8824 36.9075 76.3164 37.0431 75.5729 37.0431V39.4417C76.6044 39.4417 77.5616 39.2535 78.402 38.8253L77.3132 36.688ZM75.5729 37.103C76.3034 37.103 77.0553 36.9089 77.6263 36.338L75.9302 34.6419C75.9295 34.6426 75.9278 34.6443 75.9227 34.6474C75.9173 34.6507 75.9045 34.6578 75.8806 34.6659C75.8312 34.6829 75.7351 34.7044 75.5729 34.7044V37.103ZM77.6441 36.3198C78.1913 35.7488 78.3913 35.0154 78.3913 34.2846H75.9927C75.9927 34.5853 75.9169 34.6554 75.9123 34.6601L77.6441 36.3198ZM78.3913 34.2846V31.946H75.9927V34.2846H78.3913ZM78.3913 31.946C78.3913 31.2155 78.1972 30.4635 77.6263 29.8926L75.9302 31.5887C75.9308 31.5893 75.9326 31.591 75.9357 31.5961C75.939 31.6016 75.946 31.6144 75.9542 31.6382C75.9712 31.6877 75.9927 31.7838 75.9927 31.946H78.3913ZM77.6263 29.8926C77.0553 29.3216 76.3034 29.1275 75.5729 29.1275V31.5262C75.7351 31.5262 75.8312 31.5477 75.8806 31.5647C75.9045 31.5728 75.9173 31.5799 75.9227 31.5832C75.9278 31.5863 75.9295 31.588 75.9302 31.5887L77.6263 29.8926ZM75.5729 29.1275C74.8421 29.1275 74.1087 29.3276 73.5378 29.8747L75.1974 31.6065C75.2022 31.602 75.2723 31.5262 75.5729 31.5262V29.1275ZM73.5195 29.8926C72.9486 30.4635 72.7545 31.2155 72.7545 31.946H75.1531C75.1531 31.7838 75.1746 31.6877 75.1916 31.6382C75.1998 31.6144 75.2068 31.6016 75.2102 31.5961C75.2133 31.591 75.215 31.5893 75.2156 31.5887L73.5195 29.8926ZM72.7545 31.946V34.2846H75.1531V31.946H72.7545ZM72.7545 34.2846C72.7545 35.0154 72.9546 35.7488 73.5017 36.3198L75.2335 34.6601C75.2289 34.6554 75.1531 34.5853 75.1531 34.2846H72.7545ZM73.5378 36.3558C74.1087 36.903 74.8421 37.103 75.5729 37.103V34.7044C75.2723 34.7044 75.2022 34.6286 75.1974 34.6241L73.5378 36.3558ZM31.31 53.8646L30.835 54.9658L30.8441 54.9698L30.8534 54.9736L31.31 53.8646ZM29.8708 52.7852L28.9053 53.4967L28.9113 53.5048L28.9174 53.5128L29.8708 52.7852ZM29.3671 51.1841V49.9848H28.1678V51.1841H29.3671ZM32.0656 51.1841H33.2649V49.9848H32.0656V51.1841ZM32.4434 51.8857L31.7463 52.8617L31.7724 52.8803L31.7995 52.8975L32.4434 51.8857ZM35.3577 51.8677L34.6821 50.8768L34.6713 50.8842L34.6606 50.8918L35.3577 51.8677ZM35.4117 50.4286L34.7003 51.3941L34.7172 51.4065L34.7345 51.4184L35.4117 50.4286ZM34.3503 50.0867L34.4991 48.8967L34.4991 48.8967L34.3503 50.0867ZM33.1989 49.9428L33.0488 51.1327L33.0502 51.1329L33.1989 49.9428ZM30.6444 44.7797L29.8952 43.8432L29.8952 43.8432L30.6444 44.7797ZM37.1207 44.7797L37.83 43.8126L37.83 43.8126L37.1207 44.7797ZM38.2001 46.9025V48.1019H39.3994V46.9025H38.2001ZM35.5017 46.9025H34.3023V48.1019H35.5017V46.9025ZM35.1419 46.3269L34.4646 47.3167L34.4941 47.3369L34.5248 47.3553L35.1419 46.3269ZM32.5693 46.3269L33.2609 47.3067L33.2796 47.2935L33.2978 47.2796L32.5693 46.3269ZM32.5333 47.6221L31.7841 48.5586L31.7987 48.5703L31.8137 48.5816L32.5333 47.6221ZM33.4328 47.928L33.2583 49.1145L33.268 49.1159L33.2777 49.1172L33.4328 47.928ZM34.6741 48.0899L34.519 49.2791L34.5254 49.2799L34.6741 48.0899ZM37.4446 49.0253L36.7069 49.9711L36.716 49.978L37.4446 49.0253ZM37.3186 53.4329L38.0538 54.3804L38.0538 54.3804L37.3186 53.4329ZM33.4508 53.0431C32.7565 53.0431 32.204 52.9357 31.7667 52.7556L30.8534 54.9736C31.6394 55.2972 32.514 55.4417 33.4508 55.4417V53.0431ZM31.7851 52.7634C31.3314 52.5677 31.0283 52.3251 30.8242 52.0576L28.9174 53.5128C29.4089 54.1568 30.0653 54.6338 30.835 54.9658L31.7851 52.7634ZM30.8363 52.0738C30.6649 51.841 30.5664 51.5616 30.5664 51.1841H28.1678C28.1678 52.03 28.4052 52.8179 28.9053 53.4967L30.8363 52.0738ZM29.3671 52.3834H32.0656V49.9848H29.3671V52.3834ZM30.8663 51.1841C30.8663 51.8922 31.2071 52.4765 31.7463 52.8617L33.1405 50.9098C33.1391 50.9088 33.1788 50.9377 33.216 51.0068C33.2549 51.079 33.2649 51.1466 33.2649 51.1841H30.8663ZM31.7995 52.8975C32.3061 53.22 32.8831 53.3369 33.4508 53.3369V50.9383C33.203 50.9383 33.1083 50.8873 33.0873 50.8739L31.7995 52.8975ZM33.4508 53.3369H34.2424V50.9383H33.4508V53.3369ZM34.2424 53.3369C34.8481 53.3369 35.5115 53.2317 36.0548 52.8437L34.6606 50.8918C34.6853 50.8742 34.6787 50.8873 34.608 50.9044C34.5363 50.9218 34.4187 50.9383 34.2424 50.9383V53.3369ZM36.0334 52.8586C36.6303 52.4516 36.9528 51.8259 36.9528 51.1122H34.5542C34.5542 51.1074 34.5564 51.0558 34.5922 50.9874C34.6283 50.9184 34.6717 50.8839 34.6821 50.8768L36.0334 52.8586ZM36.9528 51.1122C36.9528 50.4565 36.6753 49.8399 36.0889 49.4387L34.7345 51.4184C34.6947 51.3911 34.6371 51.3362 34.5954 51.2527C34.5555 51.1731 34.5542 51.1156 34.5542 51.1122H36.9528ZM36.1231 49.463C35.6512 49.1153 35.0562 48.9663 34.4991 48.8967L34.2015 51.2768C34.3879 51.3001 34.5197 51.3304 34.6078 51.3588C34.6977 51.3877 34.7175 51.4068 34.7003 51.3941L36.1231 49.463ZM34.4991 48.8967L33.3477 48.7528L33.0502 51.1329L34.2015 51.2768L34.4991 48.8967ZM33.3491 48.7529C32.1909 48.6068 31.5509 48.3439 31.2423 48.101L29.7586 49.9857C30.5774 50.6303 31.7364 50.9671 33.0488 51.1327L33.3491 48.7529ZM31.2423 48.101C31.0434 47.9443 30.8543 47.6631 30.8543 47.0105H28.4556C28.4556 48.1808 28.8302 49.2548 29.7586 49.9857L31.2423 48.101ZM30.8543 47.0105C30.8543 46.3594 31.0594 45.9836 31.3936 45.7162L29.8952 43.8432C28.9101 44.6313 28.4556 45.7426 28.4556 47.0105H30.8543ZM31.3936 45.7162C31.7566 45.4258 32.4102 45.1875 33.5408 45.1875V42.7889C32.1287 42.7889 30.8514 43.0782 29.8952 43.8432L31.3936 45.7162ZM33.5408 45.1875H34.2244V42.7889H33.5408V45.1875ZM34.2244 45.1875C35.2703 45.1875 35.9598 45.4156 36.4115 45.7469L37.83 43.8126C36.8425 43.0885 35.601 42.7889 34.2244 42.7889V45.1875ZM36.4115 45.7469C36.825 46.0501 37.0008 46.3995 37.0008 46.9025H39.3994C39.3994 45.6305 38.8556 44.5648 37.83 43.8126L36.4115 45.7469ZM38.2001 45.7032H35.5017V48.1019H38.2001V45.7032ZM36.701 46.9025C36.701 46.1647 36.289 45.6165 35.7589 45.2985L34.5248 47.3553C34.5199 47.3524 34.4561 47.3126 34.3947 47.2144C34.3283 47.1081 34.3023 46.9933 34.3023 46.9025H36.701ZM35.8191 45.3371C35.3278 45.0009 34.7586 44.8937 34.2244 44.8937V47.2923C34.4577 47.2923 34.5002 47.341 34.4646 47.3167L35.8191 45.3371ZM34.2244 44.8937H33.5408V47.2923H34.2244V44.8937ZM33.5408 44.8937C33.006 44.8937 32.3585 44.9783 31.8408 45.3742L33.2978 47.2796C33.2338 47.3286 33.2001 47.3285 33.2458 47.3175C33.2912 47.3065 33.3843 47.2923 33.5408 47.2923V44.8937ZM31.8777 45.3471C31.2889 45.7626 31.0642 46.3922 31.0642 46.9925H33.4628C33.4628 46.9769 33.4654 47.0242 33.4297 47.1019C33.3905 47.1874 33.3276 47.2596 33.2609 47.3067L31.8777 45.3471ZM31.0642 46.9925C31.0642 47.5527 31.2627 48.1415 31.7841 48.5586L33.2825 46.6856C33.3453 46.7358 33.3998 46.8062 33.4333 46.8843C33.4641 46.9563 33.4628 47.001 33.4628 46.9925H31.0642ZM31.8137 48.5816C32.2423 48.903 32.7765 49.0437 33.2583 49.1145L33.6073 46.7414C33.4552 46.719 33.3523 46.6929 33.2882 46.671C33.222 46.6486 33.2212 46.6389 33.2529 46.6627L31.8137 48.5816ZM33.2777 49.1172L34.519 49.2791L34.8292 46.9006L33.5879 46.7387L33.2777 49.1172ZM34.5254 49.2799C35.683 49.4246 36.3556 49.697 36.7069 49.971L38.1822 48.0797C37.3342 47.4183 36.1598 47.0669 34.8229 46.8998L34.5254 49.2799ZM36.716 49.978C36.9704 50.1726 37.1627 50.4788 37.1627 51.1122H39.5614C39.5614 49.8986 39.142 48.8136 38.1731 48.0727L36.716 49.978ZM37.1627 51.1122C37.1627 51.8096 36.9415 52.2075 36.5834 52.4853L38.0538 54.3804C39.087 53.5788 39.5614 52.4296 39.5614 51.1122H37.1627ZM36.5834 52.4853C36.1848 52.7946 35.467 53.0431 34.2424 53.0431V55.4417C35.7282 55.4417 37.0613 55.1505 38.0538 54.3804L36.5834 52.4853ZM34.2424 53.0431H33.4508V55.4417H34.2424V53.0431ZM40.082 54.0625H38.8827V55.2618H40.082V54.0625ZM40.082 40.9299V39.7306H38.8827V40.9299H40.082ZM42.7805 40.9299H43.9798V39.7306H42.7805V40.9299ZM42.7805 44.1681L43.9785 44.2251L43.9798 44.1966V44.1681H42.7805ZM42.6906 46.057L41.4926 46L41.4328 47.2563H42.6906V46.057ZM43.4821 46.057L44.2287 46.9956L46.9164 44.8577H43.4821V46.057ZM42.6906 46.6867H41.4912V49.1731L43.4372 47.6253L42.6906 46.6867ZM43.4102 44.7078L42.5621 43.8597L42.5621 43.8597L43.4102 44.7078ZM47.6558 44.9956L46.7451 45.7762L46.7532 45.7854L47.6558 44.9956ZM48.5373 54.0625V55.2618H49.7366V54.0625H48.5373ZM45.8388 54.0625H44.6395V55.2618H45.8388V54.0625ZM45.425 46.7586L44.5409 47.569L44.5585 47.5882L44.577 47.6067L45.425 46.7586ZM43.1763 46.7586L44.043 47.5876L44.0518 47.5784L44.0604 47.569L43.1763 46.7586ZM42.7805 54.0625V55.2618H43.9798V54.0625H42.7805ZM41.2814 54.0625V40.9299H38.8827V54.0625H41.2814ZM40.082 42.1292H42.7805V39.7306H40.082V42.1292ZM41.5812 40.9299V44.1681H43.9798V40.9299H41.5812ZM41.5825 44.111L41.4926 46L43.8885 46.1141L43.9785 44.2251L41.5825 44.111ZM42.6906 47.2563H43.4821V44.8577H42.6906V47.2563ZM42.7355 45.1184L41.944 45.7481L43.4372 47.6253L44.2287 46.9956L42.7355 45.1184ZM43.8899 46.6867C43.8899 46.0852 44.0543 45.7597 44.2582 45.5558L42.5621 43.8597C41.8066 44.6153 41.4912 45.6091 41.4912 46.6867H43.8899ZM44.2582 45.5558C44.4687 45.3454 44.7868 45.1875 45.3531 45.1875V42.7889C44.2882 42.7889 43.3111 43.1107 42.5621 43.8597L44.2582 45.5558ZM45.3531 45.1875C45.9959 45.1875 46.4183 45.3948 46.7452 45.7761L48.5664 44.2151C47.7419 43.2532 46.6291 42.7889 45.3531 42.7889V45.1875ZM46.7532 45.7854C47.1053 46.1878 47.3379 46.7761 47.3379 47.6761H49.7366C49.7366 46.3454 49.3816 45.1467 48.5583 44.2059L46.7532 45.7854ZM47.3379 47.6761V54.0625H49.7366V47.6761H47.3379ZM48.5373 52.8632H45.8388V55.2618H48.5373V52.8632ZM47.0381 54.0625V47.946H44.6395V54.0625H47.0381ZM47.0381 47.946C47.0381 47.2183 46.8391 46.4767 46.2731 45.9106L44.577 47.6067C44.5778 47.6075 44.5888 47.6168 44.6028 47.657C44.6187 47.7026 44.6395 47.7926 44.6395 47.946H47.0381ZM46.3091 45.9482C45.762 45.3513 45.0264 45.1275 44.2917 45.1275V47.5262C44.4222 47.5262 44.4903 47.5454 44.5168 47.5556C44.5376 47.5635 44.5397 47.5677 44.5409 47.569L46.3091 45.9482ZM44.2917 45.1275C43.5585 45.1275 42.8337 45.3575 42.2922 45.9482L44.0604 47.569C44.0649 47.5641 44.0684 47.5601 44.086 47.5533C44.1088 47.5444 44.1705 47.5262 44.2917 47.5262V45.1275ZM42.3096 45.9296C41.7664 46.4976 41.5812 47.2321 41.5812 47.946H43.9798C43.9798 47.7878 44.0003 47.6922 44.0172 47.6416C44.0254 47.6171 44.0326 47.6033 44.0364 47.5969C44.04 47.5908 44.0422 47.5885 44.043 47.5876L42.3096 45.9296ZM41.5812 47.946V54.0625H43.9798V47.946H41.5812ZM42.7805 52.8632H40.082V55.2618H42.7805V52.8632ZM50.5811 54.0625H49.3818V55.2618H50.5811V54.0625ZM50.5811 51.6159V50.4166H49.3818V51.6159H50.5811ZM53.9992 51.6159V52.8152H55.1985V51.6159H53.9992ZM53.9992 46.5967H55.1985V45.3974H53.9992V46.5967ZM51.0308 46.5967H49.8315V47.796H51.0308V46.5967ZM51.0308 44.1681V42.9688H49.8315V44.1681H51.0308ZM56.5177 44.1681H57.7171V42.9688H56.5177V44.1681ZM56.5177 51.6159H55.3184V52.8152H56.5177V51.6159ZM59.3961 51.6159H60.5954V50.4166H59.3961V51.6159ZM59.3961 54.0625V55.2618H60.5954V54.0625H59.3961ZM53.8912 42.2252L53.1015 43.1278L53.1106 43.1357L53.1198 43.1435L53.8912 42.2252ZM53.8912 40.1743L53.1198 39.256L53.1106 39.2638L53.1015 39.2718L53.8912 40.1743ZM56.2479 40.1743L55.4581 41.0769L55.4672 41.0849L55.4765 41.0927L56.2479 40.1743ZM56.2479 42.2252L55.4765 41.3069L55.4672 41.3146L55.4581 41.3226L56.2479 42.2252ZM51.7804 54.0625V51.6159H49.3818V54.0625H51.7804ZM50.5811 52.8152H53.9992V50.4166H50.5811V52.8152ZM55.1985 51.6159V46.5967H52.7998V51.6159H55.1985ZM53.9992 45.3974H51.0308V47.796H53.9992V45.3974ZM52.2301 46.5967V44.1681H49.8315V46.5967H52.2301ZM51.0308 45.3674H56.5177V42.9688H51.0308V45.3674ZM55.3184 44.1681V51.6159H57.7171V44.1681H55.3184ZM56.5177 52.8152H59.3961V50.4166H56.5177V52.8152ZM58.1968 51.6159V54.0625H60.5954V51.6159H58.1968ZM59.3961 52.8632H50.5811V55.2618H59.3961V52.8632ZM55.0785 41.4036C54.7948 41.4036 54.6956 41.3346 54.6626 41.3069L53.1198 43.1435C53.6864 43.6195 54.3788 43.8023 55.0785 43.8023V41.4036ZM54.681 41.3226C54.6734 41.316 54.6715 41.313 54.6723 41.314C54.6731 41.3151 54.6733 41.3159 54.6727 41.3145C54.6721 41.3131 54.6588 41.2817 54.6588 41.1998H52.2601C52.2601 41.9277 52.5182 42.6174 53.1015 43.1278L54.681 41.3226ZM54.6588 41.1998C54.6588 41.1178 54.6721 41.0864 54.6727 41.085C54.6733 41.0836 54.6731 41.0844 54.6723 41.0855C54.6715 41.0865 54.6734 41.0835 54.681 41.0769L53.1015 39.2718C52.5182 39.7821 52.2601 40.4718 52.2601 41.1998H54.6588ZM54.6626 41.0927C54.6956 41.0649 54.7948 40.9959 55.0785 40.9959V38.5972C54.3788 38.5972 53.6864 38.78 53.1198 39.256L54.6626 41.0927ZM55.0785 40.9959C55.3649 40.9959 55.4454 41.0658 55.4581 41.0769L57.0376 39.2718C56.4746 38.7791 55.7756 38.5972 55.0785 38.5972V40.9959ZM55.4765 41.0927C55.4864 41.101 55.4893 41.1051 55.4887 41.1043C55.4885 41.1041 55.4881 41.1035 55.4876 41.1026C55.4871 41.1018 55.4868 41.1012 55.4869 41.1013C55.4869 41.1014 55.4875 41.1028 55.4884 41.1057C55.4893 41.1086 55.4907 41.1136 55.4921 41.121C55.495 41.1357 55.4983 41.1612 55.4983 41.1998H57.8969C57.8969 40.4548 57.6204 39.7609 57.0193 39.256L55.4765 41.0927ZM55.4983 41.1998C55.4983 41.2383 55.495 41.2638 55.4921 41.2785C55.4907 41.2859 55.4893 41.2909 55.4884 41.2938C55.4875 41.2968 55.4869 41.2981 55.4869 41.2982C55.4868 41.2983 55.4871 41.2978 55.4876 41.2969C55.4881 41.296 55.4885 41.2954 55.4887 41.2952C55.4893 41.2944 55.4864 41.2985 55.4765 41.3069L57.0193 43.1435C57.6204 42.6386 57.8969 41.9447 57.8969 41.1998H55.4983ZM55.4581 41.3226C55.4454 41.3337 55.3649 41.4036 55.0785 41.4036V43.8023C55.7756 43.8023 56.4746 43.6204 57.0376 43.1278L55.4581 41.3226ZM60.9362 57.3007H59.7369V58.5H60.9362V57.3007ZM60.9362 44.1681V42.9688H59.7369V44.1681H60.9362ZM63.5447 44.1681H64.7441V42.9688H63.5447V44.1681ZM63.5447 46.057H62.3454V47.2563H63.5447V46.057ZM64.1744 46.057L65.0224 46.9051L67.0698 44.8577H64.1744V46.057ZM63.5447 46.6867H62.3454V49.5821L64.3928 47.5347L63.5447 46.6867ZM64.2463 44.7078L65.0944 45.5558L65.0998 45.5505L65.1051 45.545L64.2463 44.7078ZM68.5639 45.0496L67.6489 45.825L67.6555 45.8327L68.5639 45.0496ZM69.0496 52.4254L67.9639 51.9158L67.9594 51.9257L69.0496 52.4254ZM67.9163 53.7747L68.5586 54.7875L68.5673 54.782L68.5759 54.7763L67.9163 53.7747ZM64.2463 53.5408L63.3876 54.378L63.3929 54.3835L63.3983 54.3888L64.2463 53.5408ZM63.5447 51.5439L64.3928 50.6959L62.3454 48.6485V51.5439H63.5447ZM64.1744 52.1736V53.3729H67.0698L65.0224 51.3255L64.1744 52.1736ZM63.5447 52.1736V50.9742H62.3002L62.3462 52.218L63.5447 52.1736ZM63.6347 54.6022H64.834V54.58L64.8332 54.5578L63.6347 54.6022ZM63.6347 57.3007V58.5H64.834V57.3007H63.6347ZM66.3511 51.49L65.4853 50.6601L65.4845 50.661L66.3511 51.49ZM66.3511 46.7406L65.4845 47.5696L65.4937 47.5793L65.5031 47.5887L66.3511 46.7406ZM64.0484 46.7586L64.8965 47.6067L64.9055 47.5976L64.9143 47.5884L64.0484 46.7586ZM64.0484 51.49L63.1826 52.3198L63.1914 52.329L63.2004 52.338L64.0484 51.49ZM62.1355 57.3007V44.1681H59.7369V57.3007H62.1355ZM60.9362 45.3674H63.5447V42.9688H60.9362V45.3674ZM62.3454 44.1681V46.057H64.7441V44.1681H62.3454ZM63.5447 47.2563H64.1744V44.8577H63.5447V47.2563ZM63.3263 45.209L62.6967 45.8386L64.3928 47.5347L65.0224 46.9051L63.3263 45.209ZM64.7441 46.6867C64.7441 46.0576 64.9112 45.739 65.0944 45.5558L63.3983 43.8597C62.646 44.612 62.3454 45.6126 62.3454 46.6867H64.7441ZM65.1051 45.545C65.2995 45.3456 65.6039 45.1875 66.1713 45.1875V42.7889C65.1075 42.7889 64.1286 43.1105 63.3876 43.8705L65.1051 45.545ZM66.1713 45.1875C66.8436 45.1875 67.2955 45.4079 67.6489 45.825L69.4789 44.2742C68.633 43.2761 67.4898 42.7889 66.1713 42.7889V45.1875ZM67.6555 45.8327C68.0199 46.2553 68.2641 46.8857 68.2641 47.856H70.6627C70.6627 46.4757 70.3073 45.2351 69.4723 44.2665L67.6555 45.8327ZM68.2641 47.856V50.3746H70.6627V47.856H68.2641ZM68.2641 50.3746C68.2641 51.0128 68.1514 51.5164 67.964 51.9158L70.1353 52.935C70.4995 52.1591 70.6627 51.2954 70.6627 50.3746H68.2641ZM67.9594 51.9257C67.7818 52.3131 67.5464 52.5822 67.2567 52.773L68.5759 54.7763C69.2696 54.3195 69.7897 53.6891 70.1399 52.9251L67.9594 51.9257ZM67.274 52.7618C67.0024 52.9341 66.6511 53.0431 66.1713 53.0431V55.4417C67.0346 55.4417 67.8467 55.2389 68.5586 54.7875L67.274 52.7618ZM66.1713 53.0431C65.5952 53.0431 65.2871 52.8855 65.0944 52.6927L63.3983 54.3888C64.141 55.1316 65.1162 55.4417 66.1713 55.4417V53.0431ZM65.1051 52.7035C64.9106 52.5041 64.7441 52.1713 64.7441 51.5439H62.3454C62.3454 52.6196 62.6466 53.618 63.3876 54.378L65.1051 52.7035ZM62.6967 52.392L63.3263 53.0216L65.0224 51.3255L64.3928 50.6959L62.6967 52.392ZM64.1744 50.9742H63.5447V53.3729H64.1744V50.9742ZM62.3462 52.218L62.4362 54.6466L64.8332 54.5578L64.7432 52.1292L62.3462 52.218ZM62.4354 54.6022V57.3007H64.834V54.6022H62.4354ZM63.6347 56.1014H60.9362V58.5H63.6347V56.1014ZM65.1998 53.103C65.9216 53.103 66.6619 52.9001 67.2178 52.3189L65.4845 50.661C65.4845 50.661 65.4846 50.6609 65.4847 50.6607C65.4849 50.6605 65.4851 50.6603 65.4853 50.6602C65.4858 50.6598 65.4858 50.6598 65.4851 50.6603C65.484 50.661 65.4767 50.6656 65.4598 50.6716C65.4246 50.6843 65.3447 50.7044 65.1998 50.7044V53.103ZM67.217 52.3198C67.7642 51.7488 67.9642 51.0154 67.9642 50.2846H65.5656C65.5656 50.5853 65.4898 50.6554 65.4853 50.6601L67.217 52.3198ZM67.9642 50.2846V47.946H65.5656V50.2846H67.9642ZM67.9642 47.946C67.9642 47.2155 67.7701 46.4635 67.1992 45.8926L65.5031 47.5887C65.5037 47.5893 65.5055 47.591 65.5086 47.5961C65.5119 47.6016 65.5189 47.6144 65.5271 47.6382C65.5441 47.6877 65.5656 47.7838 65.5656 47.946H67.9642ZM67.2178 45.9116C66.6619 45.3305 65.9216 45.1275 65.1998 45.1275V47.5262C65.3447 47.5262 65.4246 47.5463 65.4598 47.559C65.4767 47.565 65.484 47.5696 65.4851 47.5703C65.4858 47.5707 65.4858 47.5708 65.4853 47.5704C65.4851 47.5702 65.4849 47.5701 65.4847 47.5699C65.4846 47.5697 65.4845 47.5696 65.4845 47.5696L67.2178 45.9116ZM65.1998 45.1275C64.4626 45.1275 63.7354 45.3519 63.1826 45.9288L64.9143 47.5884C64.9243 47.5781 64.9359 47.5684 64.9643 47.5578C64.9976 47.5453 65.0698 47.5262 65.1998 47.5262V45.1275ZM63.2004 45.9106C62.6343 46.4767 62.4354 47.2183 62.4354 47.946H64.834C64.834 47.7926 64.8548 47.7026 64.8706 47.657C64.8847 47.6168 64.8957 47.6075 64.8965 47.6067L63.2004 45.9106ZM62.4354 47.946V50.2846H64.834V47.946H62.4354ZM62.4354 50.2846C62.4354 51.0154 62.6354 51.7488 63.1826 52.3198L64.9143 50.6601C64.9098 50.6554 64.834 50.5853 64.834 50.2846H62.4354ZM63.2004 52.338C63.7562 52.8938 64.4773 53.103 65.1998 53.103V50.7044C65.0646 50.7044 64.9869 50.6853 64.9488 50.6716C64.9155 50.6597 64.9037 50.6491 64.8965 50.6419L63.2004 52.338Z" fill="white" mask="url(#path-19-outside-1_135_1255)"/>
<defs>
<filter id="filter0_i_135_1255" x="14.6406" y="5.01872" width="69.1909" height="69.7772" filterUnits="userSpaceOnUse" color-interpolation-filters="sRGB">
<feFlood flood-opacity="0" result="BackgroundImageFix"/>
<feBlend mode="normal" in="SourceGraphic" in2="BackgroundImageFix" result="shape"/>
<feColorMatrix in="SourceAlpha" type="matrix" values="0 0 0 0 0 0 0 0 0 0 0 0 0 0 0 0 0 0 127 0" result="hardAlpha"/>
<feOffset dy="-12.8133"/>
<feGaussianBlur stdDeviation="0.256265"/>
<feComposite in2="hardAlpha" operator="arithmetic" k2="-1" k3="1"/>
<feColorMatrix type="matrix" values="0 0 0 0 0 0 0 0 0 0 0 0 0 0 0 0 0 0 0.15 0"/>
<feBlend mode="normal" in2="shape" result="effect1_innerShadow_135_1255"/>
</filter>
<filter id="filter1_d_135_1255" x="12.6788" y="5.53125" width="73.1147" height="73.1884" filterUnits="userSpaceOnUse" color-interpolation-filters="sRGB">
<feFlood flood-opacity="0" result="BackgroundImageFix"/>
<feColorMatrix in="SourceAlpha" type="matrix" values="0 0 0 0 0 0 0 0 0 0 0 0 0 0 0 0 0 0 127 0" result="hardAlpha"/>
<feOffset dy="1.96187"/>
<feGaussianBlur stdDeviation="0.980937"/>
<feComposite in2="hardAlpha" operator="out"/>
<feColorMatrix type="matrix" values="0 0 0 0 0 0 0 0 0 0 0 0 0 0 0 0 0 0 0.5 0"/>
<feBlend mode="normal" in2="BackgroundImageFix" result="effect1_dropShadow_135_1255"/>
<feBlend mode="normal" in="SourceGraphic" in2="effect1_dropShadow_135_1255" result="shape"/>
</filter>
<filter id="filter2_d_135_1255" x="19.5579" y="50.7148" width="19.0364" height="19.0364" filterUnits="userSpaceOnUse" color-interpolation-filters="sRGB">
<feFlood flood-opacity="0" result="BackgroundImageFix"/>
<feColorMatrix in="SourceAlpha" type="matrix" values="0 0 0 0 0 0 0 0 0 0 0 0 0 0 0 0 0 0 127 0" result="hardAlpha"/>
<feOffset dy="1.02506"/>
<feGaussianBlur stdDeviation="0.51253"/>
<feComposite in2="hardAlpha" operator="out"/>
<feColorMatrix type="matrix" values="0 0 0 0 0 0 0 0 0 0 0 0 0 0 0 0 0 0 0.35 0"/>
<feBlend mode="normal" in2="BackgroundImageFix" result="effect1_dropShadow_135_1255"/>
<feBlend mode="normal" in="SourceGraphic" in2="effect1_dropShadow_135_1255" result="shape"/>
</filter>
<filter id="filter3_i_135_1255" x="25.4082" y="50.9268" width="6.82373" height="6.82422" filterUnits="userSpaceOnUse" color-interpolation-filters="sRGB">
<feFlood flood-opacity="0" result="BackgroundImageFix"/>
<feBlend mode="normal" in="SourceGraphic" in2="BackgroundImageFix" result="shape"/>
<feColorMatrix in="SourceAlpha" type="matrix" values="0 0 0 0 0 0 0 0 0 0 0 0 0 0 0 0 0 0 127 0" result="hardAlpha"/>
<feOffset dy="0.51253"/>
<feComposite in2="hardAlpha" operator="arithmetic" k2="-1" k3="1"/>
<feColorMatrix type="matrix" values="0 0 0 0 0 0 0 0 0 0 0 0 0 0 0 0 0 0 0.25 0"/>
<feBlend mode="normal" in2="shape" result="effect1_innerShadow_135_1255"/>
</filter>
<filter id="filter4_i_135_1255" x="24.3833" y="54.002" width="6.82373" height="6.82422" filterUnits="userSpaceOnUse" color-interpolation-filters="sRGB">
<feFlood flood-opacity="0" result="BackgroundImageFix"/>
<feBlend mode="normal" in="SourceGraphic" in2="BackgroundImageFix" result="shape"/>
<feColorMatrix in="SourceAlpha" type="matrix" values="0 0 0 0 0 0 0 0 0 0 0 0 0 0 0 0 0 0 127 0" result="hardAlpha"/>
<feOffset dy="0.51253"/>
<feComposite in2="hardAlpha" operator="arithmetic" k2="-1" k3="1"/>
<feColorMatrix type="matrix" values="0 0 0 0 0 0 0 0 0 0 0 0 0 0 0 0 0 0 0.25 0"/>
<feBlend mode="normal" in2="shape" result="effect1_innerShadow_135_1255"/>
</filter>
<filter id="filter5_i_135_1255" x="22.334" y="58.1025" width="6.82373" height="6.82422" filterUnits="userSpaceOnUse" color-interpolation-filters="sRGB">
<feFlood flood-opacity="0" result="BackgroundImageFix"/>
<feBlend mode="normal" in="SourceGraphic" in2="BackgroundImageFix" result="shape"/>
<feColorMatrix in="SourceAlpha" type="matrix" values="0 0 0 0 0 0 0 0 0 0 0 0 0 0 0 0 0 0 127 0" result="hardAlpha"/>
<feOffset dy="0.51253"/>
<feComposite in2="hardAlpha" operator="arithmetic" k2="-1" k3="1"/>
<feColorMatrix type="matrix" values="0 0 0 0 0 0 0 0 0 0 0 0 0 0 0 0 0 0 0.25 0"/>
<feBlend mode="normal" in2="shape" result="effect1_innerShadow_135_1255"/>
</filter>
<filter id="filter6_i_135_1255" x="24.3833" y="58.6143" width="6.82373" height="6.82422" filterUnits="userSpaceOnUse" color-interpolation-filters="sRGB">
<feFlood flood-opacity="0" result="BackgroundImageFix"/>
<feBlend mode="normal" in="SourceGraphic" in2="BackgroundImageFix" result="shape"/>
<feColorMatrix in="SourceAlpha" type="matrix" values="0 0 0 0 0 0 0 0 0 0 0 0 0 0 0 0 0 0 127 0" result="hardAlpha"/>
<feOffset dy="0.51253"/>
<feComposite in2="hardAlpha" operator="arithmetic" k2="-1" k3="1"/>
<feColorMatrix type="matrix" values="0 0 0 0 0 0 0 0 0 0 0 0 0 0 0 0 0 0 0.25 0"/>
<feBlend mode="normal" in2="shape" result="effect1_innerShadow_135_1255"/>
</filter>
<filter id="filter7_i_135_1255" x="20.7959" y="60.665" width="6.82373" height="6.82422" filterUnits="userSpaceOnUse" color-interpolation-filters="sRGB">
<feFlood flood-opacity="0" result="BackgroundImageFix"/>
<feBlend mode="normal" in="SourceGraphic" in2="BackgroundImageFix" result="shape"/>
<feColorMatrix in="SourceAlpha" type="matrix" values="0 0 0 0 0 0 0 0 0 0 0 0 0 0 0 0 0 0 127 0" result="hardAlpha"/>
<feOffset dy="0.51253"/>
<feComposite in2="hardAlpha" operator="arithmetic" k2="-1" k3="1"/>
<feColorMatrix type="matrix" values="0 0 0 0 0 0 0 0 0 0 0 0 0 0 0 0 0 0 0.25 0"/>
<feBlend mode="normal" in2="shape" result="effect1_innerShadow_135_1255"/>
</filter>
<filter id="filter8_i_135_1255" x="28.9956" y="52.9766" width="6.82373" height="6.82422" filterUnits="userSpaceOnUse" color-interpolation-filters="sRGB">
<feFlood flood-opacity="0" result="BackgroundImageFix"/>
<feBlend mode="normal" in="SourceGraphic" in2="BackgroundImageFix" result="shape"/>
<feColorMatrix in="SourceAlpha" type="matrix" values="0 0 0 0 0 0 0 0 0 0 0 0 0 0 0 0 0 0 127 0" result="hardAlpha"/>
<feOffset dy="0.51253"/>
<feComposite in2="hardAlpha" operator="arithmetic" k2="-1" k3="1"/>
<feColorMatrix type="matrix" values="0 0 0 0 0 0 0 0 0 0 0 0 0 0 0 0 0 0 0.25 0"/>
<feBlend mode="normal" in2="shape" result="effect1_innerShadow_135_1255"/>
</filter>
<filter id="filter9_i_135_1255" x="27.4575" y="57.5898" width="6.82373" height="6.82422" filterUnits="userSpaceOnUse" color-interpolation-filters="sRGB">
<feFlood flood-opacity="0" result="BackgroundImageFix"/>
<feBlend mode="normal" in="SourceGraphic" in2="BackgroundImageFix" result="shape"/>
<feColorMatrix in="SourceAlpha" type="matrix" values="0 0 0 0 0 0 0 0 0 0 0 0 0 0 0 0 0 0 127 0" result="hardAlpha"/>
<feOffset dy="0.51253"/>
<feComposite in2="hardAlpha" operator="arithmetic" k2="-1" k3="1"/>
<feColorMatrix type="matrix" values="0 0 0 0 0 0 0 0 0 0 0 0 0 0 0 0 0 0 0.25 0"/>
<feBlend mode="normal" in2="shape" result="effect1_innerShadow_135_1255"/>
</filter>
<filter id="filter10_i_135_1255" x="30.5337" y="56.0518" width="6.82373" height="6.82422" filterUnits="userSpaceOnUse" color-interpolation-filters="sRGB">
<feFlood flood-opacity="0" result="BackgroundImageFix"/>
<feBlend mode="normal" in="SourceGraphic" in2="BackgroundImageFix" result="shape"/>
<feColorMatrix in="SourceAlpha" type="matrix" values="0 0 0 0 0 0 0 0 0 0 0 0 0 0 0 0 0 0 127 0" result="hardAlpha"/>
<feOffset dy="0.51253"/>
<feComposite in2="hardAlpha" operator="arithmetic" k2="-1" k3="1"/>
<feColorMatrix type="matrix" values="0 0 0 0 0 0 0 0 0 0 0 0 0 0 0 0 0 0 0.25 0"/>
<feBlend mode="normal" in2="shape" result="effect1_innerShadow_135_1255"/>
</filter>
</defs>
</svg>
